<svg width="25" height="22" viewBox="0 0 25 22" fill="none" xmlns="http://www.w3.org/2000/svg">
<g clip-path="url(#clip0_302_18)">
<path d="M12.5 22C19.4035 22 25 17.0751 25 11C25 4.92487 19.4035 0 12.5 0C5.59644 0 0 4.92487 0 11C0 17.0751 5.59644 22 12.5 22Z" fill="black"/>
<mask id="mask0_302_18" style="mask-type:luminance" maskUnits="userSpaceOnUse" x="6" y="4" width="14" height="14">
<path d="M19.502 4.40039H6.25V17.2306H19.502V4.40039Z" fill="white"/>
</mask>
<g mask="url(#mask0_302_18)">
<path d="M6.25 7.97675C6.25 6.00158 8.08263 4.40039 10.3433 4.40039H12.1877V13.6375C12.1877 15.6127 10.3551 17.2139 8.09441 17.2139H6.25V7.97675Z" fill="white"/>
<path d="M13.0493 7.21941C13.0493 5.66252 14.4938 4.40039 16.2758 4.40039C18.0577 4.40039 19.5023 5.66252 19.5023 7.21941V7.59783C19.5023 9.15475 18.0577 10.4169 16.2758 10.4169C14.4938 10.4169 13.0493 9.15475 13.0493 7.59783V7.21941Z" fill="white"/>
<path d="M13.0493 14.0163C13.0493 12.4594 14.4938 11.1973 16.2758 11.1973C18.0577 11.1973 19.5023 12.4594 19.5023 14.0163V14.3947C19.5023 15.9517 18.0577 17.2137 16.2758 17.2137C14.4938 17.2137 13.0493 15.9517 13.0493 14.3947V14.0163Z" fill="white"/>
</g>
</g>
<defs>
<clipPath id="clip0_302_18">
<rect width="25" height="22" fill="white"/>
</clipPath>
</defs>
</svg>
