<svg width="807" height="235" viewBox="0 0 807 235" fill="none" xmlns="http://www.w3.org/2000/svg">
<g clip-path="url(#clip0_311_49)">
<mask id="mask0_311_49" style="mask-type:luminance" maskUnits="userSpaceOnUse" x="0" y="0" width="807" height="235">
<path d="M807 0H0V235H807V0Z" fill="white"/>
</mask>
<g mask="url(#mask0_311_49)">
<mask id="mask1_311_49" style="mask-type:luminance" maskUnits="userSpaceOnUse" x="-1" y="0" width="277" height="246">
<path d="M275.552 0H-0.179688V245.93H275.552V0Z" fill="white"/>
</mask>
<g mask="url(#mask1_311_49)">
<path fill-rule="evenodd" clip-rule="evenodd" d="M271.851 124.362C271.851 185.5 211.989 235.061 138.147 235.061C64.304 235.061 4.44238 185.5 4.44238 124.362C4.44238 63.2249 64.304 13.6631 138.147 13.6631C211.989 13.6631 271.851 63.2249 271.851 124.362ZM109.86 55.6348C84.1172 55.6348 63.2488 72.7891 63.2488 93.9501V192.912H84.2514C109.994 192.912 130.862 175.758 130.862 154.597V55.6348H109.86ZM140.671 85.8364C140.671 69.1566 157.119 55.6348 177.41 55.6348C197.702 55.6348 214.152 69.1566 214.152 85.8364V89.8906C214.152 106.571 197.702 120.092 177.41 120.092C157.119 120.092 140.671 106.571 140.671 89.8906V85.8364ZM177.41 128.455C157.119 128.455 140.671 141.977 140.671 158.656V162.71C140.671 179.391 157.119 192.912 177.41 192.912C197.702 192.912 214.152 179.391 214.152 162.71V158.656C214.152 141.977 197.702 128.455 177.41 128.455Z" fill="white"/>
</g>
<path d="M327.568 87.7501H346.531L371.926 146.364H372.928L398.321 87.7501H417.284V168.64H402.414V113.068H401.62L377.981 168.403H366.871L343.23 112.949H342.437V168.64H327.568V87.7501ZM456.768 169.825C450.504 169.825 445.073 168.521 440.48 165.915C435.885 163.308 432.321 159.661 429.787 154.975C427.282 150.287 426.029 144.81 426.029 138.544C426.029 132.276 427.282 126.786 429.787 122.073C432.321 117.36 435.885 113.7 440.48 111.093C445.073 108.486 450.504 107.183 456.768 107.183C463.033 107.183 468.462 108.486 473.056 111.093C477.652 113.7 481.202 117.36 483.707 122.073C486.241 126.786 487.509 132.276 487.509 138.544C487.509 144.81 486.241 150.287 483.707 154.975C481.202 159.661 477.652 163.308 473.056 165.915C468.462 168.521 463.033 169.825 456.768 169.825ZM456.851 158.371C460.249 158.371 463.089 157.489 465.372 155.725C467.656 153.935 469.354 151.537 470.468 148.535C471.61 145.534 472.18 142.189 472.18 138.504C472.18 134.791 471.61 131.434 470.468 128.432C469.354 125.404 467.656 122.994 465.372 121.204C463.089 119.413 460.249 118.518 456.851 118.518C453.372 118.518 450.475 119.413 448.164 121.204C445.881 122.994 444.169 125.404 443.026 128.432C441.913 131.434 441.357 134.791 441.357 138.504C441.357 142.189 441.913 145.534 443.026 148.535C444.169 151.537 445.881 153.935 448.164 155.725C450.475 157.489 453.372 158.371 456.851 158.371ZM519.443 169.706C514.404 169.706 509.894 168.482 505.911 166.033C501.93 163.585 498.784 160.03 496.472 155.368C494.161 150.709 493.005 145.047 493.005 138.385C493.005 131.644 494.175 125.956 496.514 121.323C498.881 116.662 502.069 113.147 506.079 110.777C510.088 108.381 514.558 107.183 519.486 107.183C523.246 107.183 526.336 107.788 528.758 108.999C531.181 110.184 533.101 111.619 534.522 113.305C535.942 114.963 537.043 116.531 537.822 118.005H538.448V87.7501H553.609V168.64H538.741V159.082H537.822C537.043 160.556 535.915 162.123 534.439 163.782C532.964 165.414 531.013 166.809 528.592 167.968C526.168 169.127 523.12 169.706 519.443 169.706ZM523.663 157.976C526.865 157.976 529.594 157.159 531.849 155.527C534.103 153.868 535.817 151.565 536.987 148.615C538.156 145.666 538.741 142.23 538.741 138.306C538.741 134.383 538.156 130.973 536.987 128.077C535.844 125.18 534.146 122.929 531.891 121.323C529.663 119.716 526.921 118.914 523.663 118.914C520.294 118.914 517.482 119.743 515.226 121.401C512.971 123.06 511.272 125.351 510.13 128.274C508.989 131.196 508.418 134.541 508.418 138.306C508.418 142.099 508.989 145.482 510.13 148.458C511.3 151.406 513.012 153.736 515.268 155.449C517.551 157.133 520.35 157.976 523.663 157.976ZM565.017 168.64V107.973H580.137V168.64H565.017ZM572.619 99.3623C570.223 99.3623 568.162 98.6118 566.436 97.1109C564.711 95.5837 563.848 93.7537 563.848 91.6208C563.848 89.4615 564.711 87.6315 566.436 86.1307C568.162 84.6035 570.223 83.8398 572.619 83.8398C575.041 83.8398 577.101 84.6035 578.801 86.1307C580.525 87.6315 581.389 89.4615 581.389 91.6208C581.389 93.7537 580.525 95.5837 578.801 97.1109C577.101 98.6118 575.041 99.3623 572.619 99.3623ZM623.474 107.973V119.032H585.55V107.973H623.474ZM595.031 168.64V102.246C595.031 98.1641 595.922 94.7673 597.704 92.0553C599.514 89.3431 601.935 87.3155 604.971 85.9727C608.007 84.6298 611.376 83.9583 615.079 83.9583C617.697 83.9583 620.021 84.1559 622.053 84.5509C624.086 84.9457 625.59 85.3012 626.564 85.6172L623.557 96.6764C622.916 96.492 622.109 96.3078 621.135 96.1234C620.161 95.9127 619.075 95.8075 617.877 95.8075C615.064 95.8075 613.074 96.4526 611.904 97.7428C610.762 99.0068 610.192 100.824 610.192 103.193V168.64H595.031ZM640.008 191.39C637.948 191.39 636.039 191.232 634.286 190.916C632.559 190.626 631.181 190.285 630.15 189.889L633.659 178.751C635.86 179.357 637.823 179.647 639.548 179.62C641.276 179.594 642.791 179.08 644.101 178.08C645.437 177.106 646.566 175.473 647.485 173.182L648.779 169.904L625.514 107.973H641.554L656.339 153.79H657.007L671.835 107.973H687.913L662.228 175.985C661.03 179.199 659.443 181.951 657.466 184.242C655.49 186.559 653.067 188.323 650.199 189.535C647.36 190.771 643.961 191.39 640.008 191.39ZM719.474 169.825C713.07 169.825 707.571 168.495 702.975 165.835C698.41 163.177 694.887 159.503 692.409 154.816C689.96 150.103 688.732 144.678 688.732 138.544C688.732 132.382 689.987 126.945 692.492 122.231C694.999 117.492 698.535 113.805 703.101 111.172C707.696 108.512 713.124 107.183 719.391 107.183C724.597 107.183 729.206 108.091 733.215 109.908C737.253 111.698 740.469 114.239 742.864 117.531C745.258 120.796 746.622 124.614 746.956 128.985H732.505C731.92 126.062 730.528 123.627 728.328 121.678C726.157 119.704 723.246 118.715 719.6 118.715C716.508 118.715 713.794 119.505 711.454 121.086C709.117 122.64 707.291 124.878 705.984 127.8C704.703 130.723 704.062 134.225 704.062 138.306C704.062 142.441 704.703 145.996 705.984 148.97C707.264 151.92 709.061 154.197 711.371 155.803C713.709 157.383 716.452 158.173 719.6 158.173C721.827 158.173 723.817 157.778 725.572 156.989C727.355 156.173 728.843 155.001 730.04 153.473C731.239 151.946 732.059 150.09 732.505 147.904H746.956C746.594 152.196 745.258 156.001 742.947 159.318C740.637 162.61 737.489 165.19 733.508 167.059C729.525 168.904 724.848 169.825 719.474 169.825ZM773.128 169.864C769.063 169.864 765.402 169.18 762.144 167.811C758.914 166.415 756.351 164.361 754.458 161.649C752.593 158.937 751.659 155.594 751.659 151.616C751.659 148.194 752.329 145.363 753.664 143.125C755.002 140.887 756.824 139.096 759.136 137.753C761.447 136.41 764.051 135.397 766.946 134.711C769.87 134.001 772.891 133.488 776.01 133.171C779.768 132.803 782.818 132.473 785.157 132.184C787.495 131.868 789.195 131.395 790.253 130.762C791.338 130.104 791.882 129.09 791.882 127.721V127.484C791.882 124.508 790.948 122.205 789.083 120.572C787.217 118.94 784.532 118.123 781.023 118.123C777.319 118.123 774.381 118.887 772.21 120.414C770.065 121.942 768.618 123.745 767.865 125.825L753.748 123.929C754.861 120.243 756.7 117.162 759.262 114.687C761.823 112.186 764.956 110.316 768.66 109.079C772.362 107.814 776.456 107.183 780.938 107.183C784.03 107.183 787.107 107.525 790.168 108.21C793.233 108.894 796.03 110.026 798.564 111.606C801.099 113.16 803.131 115.28 804.662 117.965C806.222 120.651 807.001 124.008 807.001 128.037V168.64H792.467V160.306H791.965C791.046 161.992 789.751 163.571 788.08 165.046C786.439 166.494 784.364 167.665 781.858 168.561C779.379 169.43 776.47 169.864 773.128 169.864ZM777.054 159.358C780.089 159.358 782.721 158.792 784.949 157.661C787.176 156.501 788.888 154.975 790.085 153.078C791.311 151.182 791.923 149.115 791.923 146.877V139.728C791.45 140.096 790.643 140.439 789.5 140.756C788.387 141.071 787.134 141.347 785.742 141.584C784.35 141.822 782.971 142.032 781.608 142.216C780.243 142.401 779.06 142.559 778.056 142.691C775.8 142.98 773.783 143.454 772.001 144.111C770.218 144.771 768.812 145.692 767.782 146.877C766.753 148.035 766.236 149.537 766.236 151.379C766.236 154.013 767.253 156.001 769.286 157.344C771.318 158.687 773.908 159.358 777.054 159.358Z" fill="white"/>
</g>
</g>
<defs>
<clipPath id="clip0_311_49">
<rect width="807" height="235" fill="white"/>
</clipPath>
</defs>
</svg>
