<svg width="259" height="287" viewBox="0 0 259 287" fill="none" xmlns="http://www.w3.org/2000/svg">
<path d="M0 80C0 35.8172 35.8172 0 80 0H116.047V206.627C116.047 250.809 80.2302 286.627 36.0474 286.627H0V80Z" fill="currentColor"/>
<path d="M132.882 63.0592C132.882 28.2326 161.114 0 195.941 0V0C230.768 0 259 28.2326 259 63.0592V71.5241C259 106.351 230.768 134.583 195.941 134.583V134.583C161.114 134.583 132.882 106.351 132.882 71.5241V63.0592Z" fill="currentColor"/>
<path d="M132.882 215.102C132.882 180.276 161.114 152.043 195.941 152.043V152.043C230.768 152.043 259 180.276 259 215.102V223.567C259 258.394 230.768 286.626 195.941 286.626V286.626C161.114 286.626 132.882 258.394 132.882 223.567V215.102Z" fill="currentColor"/>
</svg>
