<svg width="520" height="172" viewBox="0 0 520 172" fill="none" xmlns="http://www.w3.org/2000/svg">
<mask id="mask0_326_12" style="mask-type:luminance" maskUnits="userSpaceOnUse" x="0" y="0" width="520" height="172">
<path d="M520 0H0V172H520V0Z" fill="white"/>
</mask>
<g mask="url(#mask0_326_12)">
<mask id="mask1_326_12" style="mask-type:luminance" maskUnits="userSpaceOnUse" x="6" y="0" width="177" height="180">
<path d="M182.491 0H6.86816V180H182.491V0Z" fill="white"/>
</mask>
<g mask="url(#mask1_326_12)">
<path fill-rule="evenodd" clip-rule="evenodd" d="M180.133 91.0224C180.133 135.77 142.005 172.045 94.972 172.045C47.9393 172.045 9.81152 135.77 9.81152 91.0224C9.81152 46.275 47.9393 10 94.972 10C142.005 10 180.133 46.275 180.133 91.0224ZM76.9558 40.7197C60.5595 40.7197 47.2678 53.2752 47.2678 68.7632V141.195H60.645C77.0412 141.195 90.333 128.64 90.333 113.152V40.7197H76.9558ZM96.58 62.8247C96.58 50.6165 107.057 40.7197 119.981 40.7197C132.906 40.7197 143.383 50.6165 143.383 62.8247V65.792C143.383 78.0004 132.906 87.897 119.981 87.897C107.057 87.897 96.58 78.0004 96.58 65.792V62.8247ZM119.981 94.0176C107.057 94.0176 96.58 103.915 96.58 116.123V119.09C96.58 131.299 107.057 141.195 119.981 141.195C132.906 141.195 143.383 131.299 143.383 119.09V116.123C143.383 103.915 132.906 94.0176 119.981 94.0176Z" fill="white"/>
</g>
<path d="M215.621 64.2253H227.699L243.874 107.126H244.512L260.686 64.2253H272.764V123.43H263.293V82.7556H262.787L247.731 123.256H240.654L225.597 82.6689H225.091V123.43H215.621V64.2253ZM297.912 124.297C293.923 124.297 290.463 123.343 287.538 121.435C284.611 119.527 282.342 116.858 280.728 113.428C279.132 109.997 278.334 105.988 278.334 101.402C278.334 96.8145 279.132 92.7964 280.728 89.3467C282.342 85.8969 284.611 83.2181 287.538 81.3102C290.463 79.4022 293.923 78.4483 297.912 78.4483C301.903 78.4483 305.361 79.4022 308.287 81.3102C311.214 83.2181 313.475 85.8969 315.071 89.3467C316.685 92.7964 317.493 96.8145 317.493 101.402C317.493 105.988 316.685 109.997 315.071 113.428C313.475 116.858 311.214 119.527 308.287 121.435C305.361 123.343 301.903 124.297 297.912 124.297ZM297.965 115.914C300.13 115.914 301.938 115.268 303.393 113.977C304.847 112.667 305.929 110.912 306.638 108.715C307.366 106.518 307.729 104.07 307.729 101.373C307.729 98.6554 307.366 96.1979 306.638 94.0006C305.929 91.785 304.847 90.0209 303.393 88.7108C301.938 87.3998 300.13 86.7447 297.965 86.7447C295.75 86.7447 293.904 87.3998 292.433 88.7108C290.978 90.0209 289.888 91.785 289.16 94.0006C288.451 96.1979 288.097 98.6554 288.097 101.373C288.097 104.07 288.451 106.518 289.16 108.715C289.888 110.912 290.978 112.667 292.433 113.977C293.904 115.268 295.75 115.914 297.965 115.914ZM337.833 124.21C334.623 124.21 331.75 123.314 329.213 121.522C326.678 119.73 324.674 117.128 323.201 113.716C321.73 110.306 320.993 106.162 320.993 101.286C320.993 96.3522 321.738 92.189 323.228 88.7975C324.736 85.3862 326.767 82.8134 329.32 81.0789C331.874 79.3251 334.721 78.4483 337.86 78.4483C340.254 78.4483 342.223 78.8915 343.766 79.778C345.308 80.6453 346.532 81.6956 347.437 82.9291C348.341 84.1428 349.042 85.2902 349.539 86.3692H349.937V64.2253H359.594V123.43H350.124V116.434H349.539C349.042 117.513 348.324 118.66 347.384 119.874C346.444 121.069 345.202 122.09 343.66 122.938C342.116 123.786 340.174 124.21 337.833 124.21ZM340.52 115.625C342.559 115.625 344.298 115.027 345.734 113.832C347.17 112.618 348.261 110.932 349.006 108.773C349.751 106.615 350.124 104.1 350.124 101.228C350.124 98.3567 349.751 95.8607 349.006 93.7411C348.279 91.6207 347.197 89.9733 345.761 88.7975C344.342 87.6218 342.595 87.0343 340.52 87.0343C338.374 87.0343 336.583 87.641 335.146 88.8551C333.71 90.0693 332.628 91.7458 331.901 93.8854C331.174 96.0243 330.81 98.4719 330.81 101.228C330.81 104.004 331.174 106.48 331.901 108.658C332.646 110.816 333.736 112.521 335.173 113.775C336.628 115.008 338.41 115.625 340.52 115.625ZM366.86 123.43V79.0264H376.49V123.43H366.86ZM371.702 72.7244C370.176 72.7244 368.863 72.1751 367.764 71.0766C366.665 69.9588 366.115 68.6194 366.115 67.0583C366.115 65.4779 366.665 64.1385 367.764 63.04C368.863 61.9222 370.176 61.3633 371.702 61.3633C373.245 61.3633 374.556 61.9222 375.639 63.04C376.737 64.1385 377.288 65.4779 377.288 67.0583C377.288 68.6194 376.737 69.9588 375.639 71.0766C374.556 72.1751 373.245 72.7244 371.702 72.7244ZM404.093 79.0264V87.121H379.938V79.0264H404.093ZM385.977 123.43V74.8347C385.977 71.8474 386.545 69.3613 387.679 67.3763C388.832 65.3912 390.374 63.9072 392.308 62.9244C394.242 61.9415 396.387 61.45 398.746 61.45C400.413 61.45 401.894 61.5946 403.188 61.8837C404.483 62.1727 405.441 62.4329 406.061 62.6642L404.146 70.7586C403.738 70.6236 403.224 70.4888 402.603 70.3538C401.983 70.1996 401.291 70.1226 400.528 70.1226C398.737 70.1226 397.469 70.5948 396.724 71.5391C395.996 72.4642 395.634 73.794 395.634 75.5285V123.43H385.977ZM414.624 140.081C413.312 140.081 412.096 139.965 410.98 139.734C409.88 139.522 409.002 139.272 408.345 138.982L410.58 130.83C411.982 131.274 413.232 131.486 414.331 131.466C415.432 131.447 416.397 131.071 417.231 130.339C418.082 129.626 418.801 128.431 419.387 126.754L420.21 124.355L405.393 79.0264H415.609L425.026 112.561H425.451L434.896 79.0264H445.137L428.777 128.806C428.014 131.158 427.003 133.172 425.744 134.849C424.485 136.545 422.942 137.836 421.115 138.723C419.307 139.628 417.142 140.081 414.624 140.081ZM465.239 124.297C461.16 124.297 457.657 123.324 454.73 121.377C451.822 119.431 449.579 116.742 448 113.312C446.44 109.862 445.658 105.892 445.658 101.402C445.658 96.8921 446.457 92.9124 448.053 89.4626C449.65 85.9936 451.902 83.2952 454.81 81.368C457.737 79.4215 461.194 78.4483 465.186 78.4483C468.502 78.4483 471.437 79.1131 473.991 80.4429C476.563 81.7534 478.611 83.6129 480.137 86.022C481.661 88.412 482.53 91.2067 482.743 94.4054H473.539C473.166 92.2665 472.28 90.484 470.878 89.0579C469.495 87.6125 467.641 86.8891 465.319 86.8891C463.349 86.8891 461.621 87.4674 460.131 88.624C458.642 89.7614 457.479 91.3995 456.646 93.5383C455.83 95.6779 455.422 98.2407 455.422 101.228C455.422 104.254 455.83 106.856 456.646 109.033C457.462 111.192 458.606 112.859 460.078 114.034C461.567 115.191 463.314 115.769 465.319 115.769C466.737 115.769 468.005 115.48 469.123 114.902C470.258 114.305 471.206 113.447 471.969 112.329C472.732 111.211 473.255 109.853 473.539 108.253H482.743C482.512 111.394 481.661 114.179 480.19 116.607C478.718 119.016 476.713 120.905 474.178 122.273C471.64 123.623 468.661 124.297 465.239 124.297ZM499.413 124.326C496.824 124.326 494.492 123.825 492.416 122.823C490.359 121.801 488.727 120.298 487.521 118.313C486.333 116.328 485.738 113.881 485.738 110.97C485.738 108.465 486.165 106.393 487.016 104.755C487.868 103.117 489.028 101.806 490.501 100.823C491.973 99.8404 493.631 99.0985 495.475 98.597C497.338 98.0771 499.262 97.7016 501.248 97.4696C503.642 97.2001 505.585 96.9589 507.075 96.747C508.564 96.5158 509.646 96.1694 510.32 95.7063C511.011 95.2248 511.358 94.4829 511.358 93.4807V93.3072C511.358 91.1291 510.763 89.4434 509.575 88.2484C508.386 87.0535 506.676 86.456 504.441 86.456C502.082 86.456 500.211 87.0151 498.828 88.1325C497.462 89.2507 496.54 90.5708 496.06 92.093L487.069 90.7052C487.778 88.0073 488.949 85.7525 490.581 83.9408C492.212 82.11 494.208 80.7416 496.567 79.8359C498.925 78.9107 501.532 78.4483 504.387 78.4483C506.357 78.4483 508.316 78.6988 510.266 79.1999C512.218 79.7009 514 80.5296 515.614 81.686C517.228 82.8231 518.523 84.3747 519.498 86.34C520.491 88.306 520.988 90.7628 520.988 93.7119V123.43H511.73V117.33H511.411C510.825 118.564 510.001 119.72 508.936 120.799C507.891 121.859 506.569 122.716 504.973 123.372C503.394 124.008 501.541 124.326 499.413 124.326ZM501.914 116.636C503.846 116.636 505.523 116.222 506.942 115.394C508.36 114.545 509.451 113.428 510.213 112.04C510.994 110.652 511.384 109.139 511.384 107.501V102.269C511.082 102.538 510.568 102.789 509.841 103.021C509.131 103.252 508.334 103.454 507.447 103.627C506.561 103.801 505.682 103.955 504.814 104.09C503.944 104.225 503.191 104.341 502.552 104.437C501.115 104.649 499.83 104.996 498.695 105.477C497.559 105.96 496.664 106.634 496.007 107.501C495.352 108.349 495.023 109.448 495.023 110.796C495.023 112.724 495.671 114.179 496.965 115.162C498.26 116.145 499.91 116.636 501.914 116.636Z" fill="white"/>
</g>
</svg>
