<svg width="732" height="211" viewBox="0 0 732 211" fill="none" xmlns="http://www.w3.org/2000/svg">
<path d="M120.5 211C187.05 211 241 163.766 241 105.5C241 47.234 187.05 0 120.5 0C53.9497 0 0 47.234 0 105.5C0 163.766 53.9497 211 120.5 211Z" fill="white"/>
<mask id="mask0_302_18" style="mask-type:luminance" maskUnits="userSpaceOnUse" x="53" y="40" width="136" height="131">
<path d="M189 40H53V171H189V40Z" fill="white"/>
</mask>
<g mask="url(#mask0_302_18)">
<path d="M53 76.5157C53 56.3486 71.8075 40 95.0077 40H113.936V134.314C113.936 154.481 95.1286 170.83 71.9284 170.83H53V76.5157Z" fill="black"/>
<path d="M122.776 68.7831C122.776 52.8867 137.6 40 155.888 40C174.175 40 189 52.8867 189 68.7831V72.6469C189 88.5435 174.175 101.43 155.888 101.43C137.6 101.43 122.776 88.5435 122.776 72.6469V68.7831Z" fill="black"/>
<path d="M122.776 138.182C122.776 122.286 137.6 109.399 155.888 109.399C174.175 109.399 189 122.286 189 138.182V142.046C189 157.943 174.175 170.829 155.888 170.829C137.6 170.829 122.776 157.943 122.776 142.046V138.182Z" fill="black"/>
</g>
<path d="M292.604 74.9092H309.693L332.58 130.77H333.483L356.369 74.9092H373.459V152H360.058V99.0377H359.343L338.038 151.774H328.025L306.719 98.9248H306.004V152H292.604V74.9092ZM409.044 153.129C403.398 153.129 398.504 151.887 394.364 149.403C390.223 146.918 387.011 143.443 384.727 138.976C382.469 134.509 381.34 129.289 381.34 123.317C381.34 117.344 382.469 112.112 384.727 107.62C387.011 103.128 390.223 99.64 394.364 97.1556C398.504 94.6713 403.398 93.4291 409.044 93.4291C414.69 93.4291 419.584 94.6713 423.724 97.1556C427.865 99.64 431.065 103.128 433.323 107.62C435.607 112.112 436.749 117.344 436.749 123.317C436.749 129.289 435.607 134.509 433.323 138.976C431.065 143.443 427.865 146.918 423.724 149.403C419.584 151.887 414.69 153.129 409.044 153.129ZM409.119 142.213C412.181 142.213 414.741 141.372 416.798 139.691C418.856 137.985 420.387 135.701 421.391 132.84C422.42 129.979 422.934 126.792 422.934 123.279C422.934 119.741 422.42 116.541 421.391 113.68C420.387 110.795 418.856 108.498 416.798 106.792C414.741 105.085 412.181 104.232 409.119 104.232C405.983 104.232 403.373 105.085 401.29 106.792C399.232 108.498 397.689 110.795 396.66 113.68C395.656 116.541 395.154 119.741 395.154 123.279C395.154 126.792 395.656 129.979 396.66 132.84C397.689 135.701 399.232 137.985 401.29 139.691C403.373 141.372 405.983 142.213 409.119 142.213ZM465.53 153.016C460.988 153.016 456.923 151.849 453.334 149.516C449.746 147.182 446.91 143.794 444.827 139.352C442.744 134.911 441.703 129.515 441.703 123.166C441.703 116.742 442.757 111.321 444.865 106.905C446.998 102.463 449.871 99.113 453.485 96.8545C457.098 94.5709 461.126 93.4291 465.568 93.4291C468.956 93.4291 471.741 94.0063 473.924 95.1606C476.108 96.2899 477.839 97.6575 479.119 99.2636C480.399 100.844 481.39 102.338 482.093 103.743H482.657V74.9092H496.321V152H482.921V142.891H482.093C481.39 144.296 480.374 145.789 479.044 147.37C477.714 148.926 475.957 150.256 473.774 151.36C471.59 152.464 468.843 153.016 465.53 153.016ZM469.332 141.837C472.218 141.837 474.677 141.059 476.71 139.503C478.742 137.922 480.286 135.726 481.34 132.915C482.394 130.105 482.921 126.83 482.921 123.091C482.921 119.352 482.394 116.102 481.34 113.342C480.311 110.581 478.78 108.436 476.747 106.905C474.74 105.374 472.268 104.609 469.332 104.609C466.296 104.609 463.761 105.399 461.728 106.98C459.696 108.561 458.165 110.744 457.136 113.53C456.107 116.315 455.593 119.502 455.593 123.091C455.593 126.705 456.107 129.929 457.136 132.765C458.19 135.576 459.733 137.796 461.766 139.428C463.824 141.034 466.346 141.837 469.332 141.837ZM506.602 152V94.1819H520.228V152H506.602ZM513.453 85.976C511.294 85.976 509.437 85.2608 507.882 83.8304C506.326 82.3749 505.548 80.6308 505.548 78.5981C505.548 76.5403 506.326 74.7963 507.882 73.3659C509.437 71.9104 511.294 71.1826 513.453 71.1826C515.636 71.1826 517.493 71.9104 519.024 73.3659C520.579 74.7963 521.357 76.5403 521.357 78.5981C521.357 80.6308 520.579 82.3749 519.024 83.8304C517.493 85.2608 515.636 85.976 513.453 85.976ZM559.286 94.1819V104.722H525.107V94.1819H559.286ZM533.652 152V88.7238C533.652 84.8341 534.455 81.5969 536.061 79.0122C537.692 76.4274 539.875 74.4951 542.61 73.2153C545.346 71.9355 548.382 71.2955 551.72 71.2955C554.079 71.2955 556.174 71.4838 558.006 71.8602C559.838 72.2366 561.193 72.5754 562.071 72.8765L559.361 83.4163C558.784 83.2406 558.056 83.065 557.178 82.8893C556.3 82.6885 555.321 82.5882 554.242 82.5882C551.707 82.5882 549.913 83.203 548.859 84.4326C547.83 85.6372 547.316 87.3687 547.316 89.6272V152H533.652ZM574.187 173.682C572.33 173.682 570.611 173.531 569.03 173.23C567.474 172.954 566.232 172.628 565.303 172.251L568.465 161.636C570.448 162.214 572.217 162.49 573.773 162.464C575.329 162.439 576.696 161.95 577.876 160.996C579.08 160.068 580.097 158.512 580.925 156.329L582.092 153.205L561.125 94.1819H575.58L588.905 137.847H589.507L602.87 94.1819H617.362L594.212 159.001C593.133 162.063 591.703 164.685 589.921 166.869C588.14 169.077 585.956 170.758 583.372 171.913C580.812 173.092 577.75 173.682 574.187 173.682ZM645.805 153.129C640.033 153.129 635.077 151.862 630.936 149.327C626.821 146.793 623.646 143.292 621.413 138.825C619.205 134.333 618.1 129.164 618.1 123.317C618.1 117.445 619.23 112.263 621.488 107.771C623.747 103.254 626.934 99.7404 631.049 97.2309C635.19 94.6964 640.083 93.4291 645.73 93.4291C650.422 93.4291 654.576 94.2948 658.189 96.0264C661.828 97.7328 664.726 100.154 666.885 103.291C669.043 106.403 670.272 110.042 670.573 114.207H657.549C657.022 111.422 655.768 109.101 653.785 107.244C651.828 105.362 649.205 104.42 645.918 104.42C643.132 104.42 640.686 105.173 638.578 106.679C636.47 108.16 634.826 110.293 633.647 113.078C632.492 115.864 631.915 119.201 631.915 123.091C631.915 127.031 632.492 130.419 633.647 133.254C634.801 136.065 636.42 138.236 638.502 139.766C640.61 141.272 643.082 142.025 645.918 142.025C647.926 142.025 649.72 141.648 651.301 140.896C652.907 140.118 654.249 139.001 655.328 137.545C656.408 136.09 657.148 134.321 657.549 132.238H670.573C670.247 136.328 669.043 139.955 666.96 143.116C664.877 146.253 662.041 148.713 658.453 150.494C654.864 152.251 650.648 153.129 645.805 153.129ZM694.16 153.167C690.497 153.167 687.197 152.514 684.261 151.21C681.35 149.879 679.041 147.922 677.334 145.337C675.653 142.753 674.812 139.566 674.812 135.776C674.812 132.514 675.415 129.816 676.619 127.683C677.824 125.55 679.467 123.844 681.55 122.564C683.633 121.284 685.98 120.318 688.589 119.665C691.224 118.988 693.947 118.499 696.758 118.197C700.145 117.846 702.893 117.532 705.001 117.256C707.109 116.955 708.64 116.504 709.594 115.901C710.572 115.274 711.062 114.308 711.062 113.003V112.777C711.062 109.941 710.221 107.746 708.54 106.19C706.858 104.634 704.437 103.856 701.275 103.856C697.937 103.856 695.29 104.584 693.332 106.039C691.4 107.495 690.095 109.214 689.417 111.196L676.694 109.389C677.698 105.876 679.355 102.94 681.663 100.581C683.972 98.1971 686.795 96.4153 690.133 95.2359C693.47 94.0313 697.159 93.4291 701.199 93.4291C703.985 93.4291 706.758 93.7553 709.518 94.4078C712.279 95.0602 714.801 96.1393 717.084 97.645C719.368 99.1256 721.2 101.146 722.58 103.705C723.985 106.265 724.688 109.464 724.688 113.304V152H711.589V144.058H711.137C710.309 145.664 709.142 147.169 707.636 148.575C706.156 149.955 704.286 151.071 702.028 151.925C699.794 152.753 697.172 153.167 694.16 153.167ZM697.699 143.154C700.434 143.154 702.806 142.615 704.813 141.536C706.821 140.431 708.364 138.976 709.443 137.169C710.547 135.362 711.099 133.392 711.099 131.259V124.446C710.673 124.797 709.945 125.124 708.916 125.425C707.912 125.726 706.783 125.989 705.528 126.215C704.274 126.441 703.031 126.642 701.802 126.817C700.572 126.993 699.506 127.144 698.602 127.269C696.569 127.545 694.75 127.997 693.144 128.624C691.538 129.252 690.271 130.13 689.342 131.259C688.414 132.363 687.949 133.794 687.949 135.55C687.949 138.06 688.865 139.955 690.697 141.234C692.529 142.514 694.863 143.154 697.699 143.154Z" fill="white"/>
</svg>
